<svg xmlns="http://www.w3.org/2000/svg" width="376" height="812" viewBox="0 0 376 812">
  <g id="Mock_up" data-name="Mock up" transform="translate(0.5)">
    <path id="screen" d="M45.5.75h285a45.178,45.178,0,0,1,45,45v722c0,24.715-20.285,44-45,44H45.5c-24.715,0-45-19.285-45-44v-722A45.178,45.178,0,0,1,45.5.75Z" transform="translate(-0.5 -0.25)" fill="#fff" stroke="#000" stroke-width="1"/>
    <g id="camera" transform="translate(70.75)">
      <g id="bg" transform="translate(-0.25)" fill="#fff" stroke="#000" stroke-width="1">
        <path d="M0,0H212a0,0,0,0,1,0,0V3.625A25.375,25.375,0,0,1,186.625,29H29A29,29,0,0,1,0,0V0A0,0,0,0,1,0,0Z" stroke="none"/>
        <path d="M.85.5h210.3a.35.35,0,0,1,.35.35v3.5A24.15,24.15,0,0,1,187.35,28.5H28.15A27.65,27.65,0,0,1,.5.85v0A.35.35,0,0,1,.85.5Z" fill="none"/>
      </g>
      <g id="camera-2" data-name="camera" transform="translate(142.75 6)" fill="#fff" stroke="#95989a" stroke-width="1">
        <circle cx="5.5" cy="5.5" r="5.5" stroke="none"/>
        <circle cx="5.5" cy="5.5" r="5" fill="none"/>
      </g>
      <g id="volume" transform="translate(79.75 8)" fill="#fff" stroke="#95989a" stroke-width="1">
        <rect width="53" height="6" rx="3" stroke="none"/>
        <rect x="0.5" y="0.5" width="52" height="5" rx="2.5" fill="none"/>
      </g>
    </g>
    <g id="status_bar" data-name="status bar" transform="translate(23.25 9)">
      <g id="battery" transform="translate(304 5.5)">
        <path id="Tip" d="M22.75,4c.863.222,2,.068,2,1s-1.137,1.778-2,2Z" transform="translate(-3.5 -0.5)" fill="#0c0202" fill-rule="evenodd"/>
        <rect id="Fill" width="16" height="6" rx="1" transform="translate(1.25 2.5)" fill="#0c0202"/>
        <g id="Outline" transform="translate(0.25 0.5)" fill="none" stroke="#fff" stroke-width="1" opacity="0.4">
          <rect width="18" height="10" rx="2.5" stroke="none"/>
          <rect x="0.5" y="0.5" width="17" height="9" rx="2" fill="none"/>
        </g>
      </g>
      <path id="radian" d="M13,8.5v-7a1.5,1.5,0,1,1,3,0v7a1.5,1.5,0,0,1-3,0ZM9,9V4a1,1,0,0,1,2,0V9A1,1,0,0,1,9,9ZM4,8.5v-2a1.5,1.5,0,0,1,3,0v2a1.5,1.5,0,0,1-3,0ZM0,9V8A1,1,0,0,1,2,8V9A1,1,0,0,1,0,9Z" transform="translate(263.25 5)" fill="#0c0202"/>
      <text id="_9:41" data-name="9:41" transform="translate(0.25 16)" fill="#0c0202" font-size="15" font-family="Helvetica"><tspan x="0" y="0">9:41</tspan></text>
      <path id="wifi" d="M6,10A1.522,1.522,0,0,1,6,8c.5-.491.5-.491,1,0a1.522,1.522,0,0,1,0,2c-.25.246-.375.369-.5.369S6.25,10.246,6,10ZM4,7A.679.679,0,0,1,4,6,4.346,4.346,0,0,1,7,5c1.054,0,1.255.266,2,1A.679.679,0,0,1,9,7c-.191,0-.853.144-1,0-.462-.455-.346-1-1-1A3.469,3.469,0,0,0,5,7,.688.688,0,0,1,4,7ZM9,7c.128,0,.02.064-.022.064C8.956,7.064,8.951,7.048,9,7Zm1-2A3.555,3.555,0,0,0,7,4c-1.313,0-3.072.086-4,1A.688.688,0,0,1,2,5,.68.68,0,0,1,2,4,7.722,7.722,0,0,1,7,2a5.406,5.406,0,0,1,4,2,.68.68,0,0,1,0,1c-.146.143.193,1,0,1S10.147,5.144,10,5Zm2-1C10.606,2.627,8.973,1,7,1S2.395,2.627,1,4c-.192,0-.853.144-1,0A.679.679,0,0,1,0,3,11.125,11.125,0,0,1,7,0c2.373,0,4.323,1.348,6,3a.679.679,0,0,1,0,1,.687.687,0,0,1-1,0ZM1,4c.128,0,.02.064-.022.064C.956,4.064.951,4.048,1,4Z" transform="translate(285.25 5)" fill="#0c0202"/>
    </g>
  </g>
</svg>
