<svg xmlns="http://www.w3.org/2000/svg" width="34.84" height="56.611" viewBox="0 0 34.84 56.611">
  <path id="Path_70" data-name="Path 70" d="M276.61,365.9a4.82,4.82,0,0,0-4,1.55,4.24,4.24,0,0,0-1,2.74v25.68a7.1,7.1,0,0,0,7,7.16h4.8a1.8,1.8,0,0,1,1.8,1.77c-.84,5.47-6,9.73-12.22,10h-.43a1,1,0,0,0-1,1v1.96c.2,2.26,2.54,3.9,5.08,3.71,16.12-1.22,28.76-13.18,28.76-27.77S292.73,367.11,276.61,365.9Zm15.12,25a2,2,0,0,1-1.91,1.8h-5.64a1.93,1.93,0,0,1-1.9-1.8,1.1,1.1,0,0,1,0-.18v-6.48a2.28,2.28,0,0,1,2.24-2.3.23.23,0,0,0,.12,0,8.46,8.46,0,0,1,7.15,8.14,7.626,7.626,0,0,1-.06.84Z" transform="translate(-271.06 -365.375)" fill="#efd51e" stroke="#fcf9ce" stroke-width="1"/>
</svg>
